<?xml version="1.0" encoding="UTF-8"?>
<svg  version="1.1" viewBox="0 0 1200 1200" xmlns="http://www.w3.org/2000/svg">
  <path d="m900 768.74v-393.74c0-41.438-33.562-75-75-75-13.688 0-26.438 3.9375-37.5 10.5v-10.5c0-41.438-33.562-75-75-75-13.688 0-26.438 3.9375-37.5 10.5v-10.5c0-41.438-33.562-75-75-75s-75 33.562-75 75v10.5c-11.062-6.375-23.812-10.5-37.5-10.5-41.438 0-75 33.562-75 75v306.94l-66.938-75.375c-16.125-18.188-39.75-28.312-63.938-27.75-24.375 0.5625-47.062 12-62.25 30.938-21.375 26.812-24 64.688-6.375 94.125l147.56 246c37.125 61.688 104.81 100.12 176.81 100.12h156.37c113.81 0 206.26-92.438 206.26-206.26z"/>
  <path d="m56.25 412.5c10.312 0 18.75-8.4375 18.75-18.75v-187.5c0-72.375 58.875-131.26 131.26-131.26h187.5c10.312 0 18.75-8.4375 18.75-18.75s-8.4375-18.75-18.75-18.75h-187.5c-93 0-168.74 75.75-168.74 168.74v187.5c0 10.312 8.4375 18.75 18.75 18.75z"/>
  <path d="m993.74 37.5h-187.5c-10.312 0-18.75 8.4375-18.75 18.75s8.4375 18.75 18.75 18.75h187.5c72.375 0 131.26 58.875 131.26 131.26v187.5c0 10.312 8.4375 18.75 18.75 18.75s18.75-8.4375 18.75-18.75v-187.5c0-93-75.75-168.74-168.74-168.74z"/>
  <path d="m1143.7 787.5c-10.312 0-18.75 8.4375-18.75 18.75v187.5c0 72.375-58.875 131.26-131.26 131.26h-187.5c-10.312 0-18.75 8.4375-18.75 18.75s8.4375 18.75 18.75 18.75h187.5c93 0 168.74-75.75 168.74-168.74v-187.5c0-10.312-8.4375-18.75-18.75-18.75z"/>
  <path d="m393.74 1125h-187.5c-72.375 0-131.26-58.875-131.26-131.26v-187.5c0-10.312-8.4375-18.75-18.75-18.75s-18.75 8.4375-18.75 18.75v187.5c0 93 75.75 168.74 168.74 168.74h187.5c10.312 0 18.75-8.4375 18.75-18.75s-8.4375-18.75-18.75-18.75z"/>
</svg>