<?xml version="1.0" encoding="UTF-8"?>
<svg width="1200pt" height="1200pt" version="1.1" viewBox="0 0 1200 1200" xmlns="http://www.w3.org/2000/svg">
 <path d="m1168.4 600c0 56.062-65.672 105.47-171.79 139.82-23.625 7.6875-49.406 14.672-76.922 20.859 11.484 25.781 21.234 50.672 29.156 74.297 35.766 105.7 35.25 187.69-9.7031 221.16s-123.79 10.219-214.74-54.422c-39.422-28.031-81.609-64.031-124.4-106.5-42.844 42.422-84.891 78.422-124.4 106.5-90.938 64.688-169.64 87.938-214.74 54.422-45.094-33.469-45.469-115.59-9.7031-221.16 7.9688-23.625 17.672-48.375 29.156-74.297-27.516-6.1875-53.297-13.125-76.922-20.859-106.22-34.359-171.79-83.766-171.79-139.82s65.672-105.47 171.79-139.82c23.625-7.6875 49.406-14.672 76.922-20.859-11.484-25.781-21.234-50.672-29.156-74.297-35.766-105.7-35.25-187.69 9.7031-221.16s123.79-10.219 214.74 54.422c39.422 28.031 81.609 64.031 124.4 106.5 42.844-42.422 84.891-78.422 124.4-106.5 90.938-64.688 169.64-87.938 214.74-54.422 45.094 33.469 45.469 115.59 9.7031 221.16-7.9688 23.625-17.672 48.375-29.156 74.297 27.516 6.1875 53.297 13.125 76.922 20.859 106.22 34.359 171.79 83.766 171.79 139.82zm-568.4-87.281c-24.141 0-45.984 9.7031-61.781 25.5s-25.5 37.641-25.5 61.781 9.7031 45.984 25.5 61.781 37.641 25.5 61.781 25.5 45.984-9.7031 61.781-25.5 25.5-37.641 25.5-61.781-9.7031-45.984-25.5-61.781-37.641-25.5-61.781-25.5zm42.938 44.484c-10.969-10.969-26.156-17.812-42.938-17.812s-31.969 6.8438-42.938 17.812-17.812 26.156-17.812 42.938 6.8438 31.969 17.812 42.938 26.156 17.812 42.938 17.812 31.969-6.8438 42.938-17.812 17.812-26.156 17.812-42.938-6.8438-31.969-17.812-42.938zm-61.5 319.22c-25.641-26.391-51.516-55.219-77.062-85.781-71.25-4.0312-137.95-12.375-197.29-24.234-12.141 26.906-22.359 52.688-30.562 77.062-31.969 94.359-34.219 165.71 0.375 191.48 34.734 25.781 102.33 3.0469 183.42-54.844 38.391-27.281 79.312-62.297 121.13-103.69zm37.406-552.74c25.641 26.391 51.516 55.219 77.062 85.875 71.25 4.0312 137.95 12.375 197.29 24.234 12.141-26.906 22.359-52.688 30.562-77.062 31.969-94.359 34.219-165.71-0.375-191.48-34.734-25.781-102.33-3.0469-183.42 54.844-38.391 27.281-79.312 62.297-121.13 103.69zm289.64 140.34c-20.578 43.453-45.609 89.156-74.766 136.03 29.062 46.734 54.188 92.578 74.766 136.03 28.781-6.3281 55.594-13.5 80.062-21.469 94.734-30.703 153.32-71.25 153.32-114.56s-58.594-83.859-153.32-114.56c-24.516-7.9688-51.281-15.141-80.062-21.469zm-90.562 160.92c-19.312 29.953-40.312 60.141-62.766 90.328-12 16.172-24.141 31.828-36.375 47.25 58.359-4.1719 113.16-11.25 162.84-20.859-17.953-37.406-39.281-76.547-63.797-116.58zm-122.02 165.61c-25.5 30.703-51.422 59.391-77.062 85.781 41.812 41.438 82.734 76.406 121.13 103.69 81.234 57.703 148.78 80.578 183.42 54.844 34.734-25.781 32.344-97.031 0.375-191.48-8.2031-24.375-18.422-50.156-30.562-77.062-59.484 11.859-126.19 20.203-197.29 24.234zm-404.06-54.562c20.578-43.453 45.609-89.156 74.766-136.03-29.062-46.734-54.188-92.578-74.766-136.03-28.781 6.3281-55.594 13.5-80.062 21.469-94.734 30.703-153.32 71.25-153.32 114.56s58.594 83.859 153.32 114.56c24.516 7.9688 51.281 15.141 80.062 21.469zm90.562-160.92c19.312-29.953 40.312-60.141 62.766-90.328 12-16.172 24.141-31.828 36.375-47.25-58.359 4.1719-113.16 11.25-162.84 20.859 17.953 37.406 39.281 76.547 63.797 116.58zm122.02-165.61c25.5-30.703 51.422-59.391 77.062-85.781-41.812-41.438-82.734-76.406-121.13-103.69-81.234-57.703-148.78-80.578-183.42-54.844-34.734 25.781-32.344 97.031-0.375 191.48 8.2031 24.375 18.422 50.156 30.562 77.062 59.484-11.859 126.19-20.203 197.29-24.234zm95.766-66.938c-19.828 20.484-39.656 42.188-59.484 65.297 19.594-0.60937 39.422-1.0312 59.484-1.0312s39.938 0.375 59.484 1.0312c-19.828-23.109-39.797-44.859-59.484-65.297zm-82.734 92.953c-17.156 20.859-34.125 42.562-50.906 65.156-24.75 33.234-47.625 66.562-68.578 99.422 20.859 32.859 43.828 66.047 68.578 99.422 16.781 22.594 33.703 44.344 50.906 65.156 27.047 1.2656 54.562 2.0156 82.734 2.0156s55.828-0.60938 82.734-2.0156c17.156-20.859 34.125-42.562 50.906-65.156 24.75-33.234 47.625-66.562 68.578-99.422-20.859-32.859-43.828-66.047-68.578-99.422-16.781-22.594-33.703-44.344-50.906-65.156-27.047-1.2656-54.562-2.0156-82.734-2.0156s-55.828 0.60937-82.734 2.0156zm-135.05 189.47c-24.516 40.031-45.844 79.219-63.797 116.58 49.641 9.6094 104.48 16.781 162.84 20.859-12.234-15.281-24.375-31.078-36.375-47.25-22.5-30.188-43.312-60.375-62.766-90.328zm217.78 232.55c19.828-20.484 39.656-42.188 59.484-65.297-19.594 0.60938-39.422 1.0312-59.484 1.0312s-40.031-0.375-59.484-1.0312c19.828 23.109 39.797 44.859 59.484 65.297zm217.78-282.42c24.516-40.031 45.844-79.219 63.797-116.58-49.641-9.6094-104.48-16.781-162.84-20.859 12.234 15.281 24.375 31.078 36.375 47.25 22.5 30.188 43.312 60.375 62.766 90.328z" fill="#fff" fill-rule="evenodd"/>
</svg>
